# Blender 4.0.2
# www.blender.org
mtllib BordeArena.mtl
o Cylinder
v 0.000000 -1.000000 -12.656496
v 0.000000 1.000000 -12.656497
v 3.527371 -1.000000 -12.413305
v 3.527371 1.000000 -12.413305
v 6.919188 -1.000000 -11.693078
v 6.919188 1.000000 -11.693078
v 10.045104 -1.000000 -10.523492
v 10.045104 1.000000 -10.523492
v 12.784992 -1.000000 -8.949494
v 12.784992 1.000000 -8.949494
v 15.033560 -1.000000 -7.031573
v 15.033560 1.000000 -7.031573
v 16.704397 -1.000000 -4.843432
v 16.704397 1.000000 -4.843432
v 17.733294 -1.000000 -2.469160
v 17.733294 1.000000 -2.469160
v 18.080709 -1.000000 0.000000
v 18.080709 1.000000 0.000000
v 17.733294 -1.000000 2.469160
v 17.733294 1.000000 2.469160
v 16.704397 -1.000000 4.843432
v 16.704397 1.000000 4.843432
v 15.033560 -1.000000 7.031573
v 15.033560 1.000000 7.031573
v 12.784992 -1.000000 8.949494
v 12.784992 1.000000 8.949494
v 10.045104 -1.000000 10.523492
v 10.045104 1.000000 10.523492
v 6.919188 -1.000000 11.693078
v 6.919188 1.000000 11.693078
v 3.527371 -1.000000 12.413305
v 3.527371 1.000000 12.413305
v 0.000000 -1.000000 12.656496
v 0.000000 1.000000 12.656497
v -3.527371 -1.000000 12.413305
v -3.527371 1.000000 12.413305
v -6.919188 -1.000000 11.693078
v -6.919188 1.000000 11.693078
v -10.045104 -1.000000 10.523492
v -10.045104 1.000000 10.523492
v -12.784992 -1.000000 8.949494
v -12.784992 1.000000 8.949494
v -15.033560 -1.000000 7.031573
v -15.033560 1.000000 7.031573
v -16.704397 -1.000000 4.843432
v -16.704397 1.000000 4.843432
v -17.733294 -1.000000 2.469160
v -17.733294 1.000000 2.469160
v -18.080709 -1.000000 0.000000
v -18.080709 1.000000 0.000000
v -17.733294 -1.000000 -2.469160
v -17.733294 1.000000 -2.469160
v -16.704397 -1.000000 -4.843432
v -16.704397 1.000000 -4.843432
v -15.033560 -1.000000 -7.031573
v -15.033560 1.000000 -7.031573
v -12.784992 -1.000000 -8.949494
v -12.784992 1.000000 -8.949494
v -10.045104 -1.000000 -10.523492
v -10.045104 1.000000 -10.523492
v -6.919188 -1.000000 -11.693078
v -6.919188 1.000000 -11.693078
v -3.527371 -1.000000 -12.413305
v -3.527371 1.000000 -12.413305
v 0.000000 -1.000000 -14.000000
v 3.901806 -1.000000 -13.730993
v 3.901806 1.000000 -13.730993
v 0.000000 1.000000 -14.000000
v 7.653669 -1.000000 -12.934313
v 7.653669 1.000000 -12.934313
v 11.111404 -1.000000 -11.640574
v 11.111404 1.000000 -11.640574
v 14.142136 -1.000000 -9.899495
v 14.142136 1.000000 -9.899495
v 16.629393 -1.000000 -7.777984
v 16.629393 1.000000 -7.777984
v 18.477591 -1.000000 -5.357568
v 18.477591 1.000000 -5.357568
v 19.615705 -1.000000 -2.731265
v 19.615705 1.000000 -2.731265
v 20.000000 -1.000000 0.000000
v 20.000000 1.000000 0.000000
v 19.615705 -1.000000 2.731265
v 19.615705 1.000000 2.731265
v 18.477591 -1.000000 5.357568
v 18.477591 1.000000 5.357568
v 16.629393 -1.000000 7.777984
v 16.629393 1.000000 7.777984
v 14.142136 -1.000000 9.899495
v 14.142136 1.000000 9.899495
v 11.111404 -1.000000 11.640574
v 11.111404 1.000000 11.640574
v 7.653669 -1.000000 12.934313
v 7.653669 1.000000 12.934313
v 3.901806 -1.000000 13.730993
v 3.901806 1.000000 13.730993
v 0.000000 -1.000000 14.000000
v 0.000000 1.000000 14.000000
v -3.901806 -1.000000 13.730993
v -3.901806 1.000000 13.730993
v -7.653669 -1.000000 12.934313
v -7.653669 1.000000 12.934313
v -11.111404 -1.000000 11.640574
v -11.111404 1.000000 11.640574
v -14.142136 -1.000000 9.899495
v -14.142136 1.000000 9.899495
v -16.629393 -1.000000 7.777984
v -16.629393 1.000000 7.777984
v -18.477591 -1.000000 5.357568
v -18.477591 1.000000 5.357568
v -19.615705 -1.000000 2.731265
v -19.615705 1.000000 2.731265
v -20.000000 -1.000000 0.000000
v -20.000000 1.000000 0.000000
v -19.615705 -1.000000 -2.731265
v -19.615705 1.000000 -2.731265
v -18.477591 -1.000000 -5.357568
v -18.477591 1.000000 -5.357568
v -16.629393 -1.000000 -7.777984
v -16.629393 1.000000 -7.777984
v -14.142136 -1.000000 -9.899495
v -14.142136 1.000000 -9.899495
v -11.111404 -1.000000 -11.640574
v -11.111404 1.000000 -11.640574
v -7.653669 -1.000000 -12.934313
v -7.653669 1.000000 -12.934313
v -3.901806 -1.000000 -13.730993
v -3.901806 1.000000 -13.730993
vn 0.0688 -0.0000 -0.9976
vn 0.2077 -0.0000 -0.9782
vn 0.3504 -0.0000 -0.9366
vn 0.4981 -0.0000 -0.8671
vn 0.6490 -0.0000 -0.7608
vn 0.7948 -0.0000 -0.6069
vn 0.9175 -0.0000 -0.3976
vn 0.9902 -0.0000 -0.1393
vn 0.9902 -0.0000 0.1393
vn 0.9175 -0.0000 0.3976
vn 0.7948 -0.0000 0.6069
vn 0.6490 -0.0000 0.7608
vn 0.4981 -0.0000 0.8671
vn 0.3504 -0.0000 0.9366
vn 0.2077 -0.0000 0.9782
vn 0.0688 -0.0000 0.9976
vn -0.0688 -0.0000 0.9976
vn -0.2077 -0.0000 0.9782
vn -0.3504 -0.0000 0.9366
vn -0.4981 -0.0000 0.8671
vn -0.6490 -0.0000 0.7608
vn -0.7948 -0.0000 0.6069
vn -0.9175 -0.0000 0.3976
vn -0.9902 -0.0000 0.1393
vn -0.9902 -0.0000 -0.1393
vn -0.9175 -0.0000 -0.3976
vn -0.7948 -0.0000 -0.6069
vn -0.6490 -0.0000 -0.7608
vn -0.4981 -0.0000 -0.8671
vn -0.3504 -0.0000 -0.9366
vn -0.2077 -0.0000 -0.9782
vn -0.0688 -0.0000 -0.9976
vn -0.0000 -1.0000 -0.0000
vn -0.0000 1.0000 -0.0000
vt 1.000000 0.500000
vt 1.000000 1.000000
vt 0.968750 1.000000
vt 0.968750 0.500000
vt 0.937500 1.000000
vt 0.937500 0.500000
vt 0.906250 1.000000
vt 0.906250 0.500000
vt 0.875000 1.000000
vt 0.875000 0.500000
vt 0.843750 1.000000
vt 0.843750 0.500000
vt 0.812500 1.000000
vt 0.812500 0.500000
vt 0.781250 1.000000
vt 0.781250 0.500000
vt 0.750000 1.000000
vt 0.750000 0.500000
vt 0.718750 1.000000
vt 0.718750 0.500000
vt 0.687500 1.000000
vt 0.687500 0.500000
vt 0.656250 1.000000
vt 0.656250 0.500000
vt 0.625000 1.000000
vt 0.625000 0.500000
vt 0.593750 1.000000
vt 0.593750 0.500000
vt 0.562500 1.000000
vt 0.562500 0.500000
vt 0.531250 1.000000
vt 0.531250 0.500000
vt 0.500000 1.000000
vt 0.500000 0.500000
vt 0.468750 1.000000
vt 0.468750 0.500000
vt 0.437500 1.000000
vt 0.437500 0.500000
vt 0.406250 1.000000
vt 0.406250 0.500000
vt 0.375000 1.000000
vt 0.375000 0.500000
vt 0.343750 1.000000
vt 0.343750 0.500000
vt 0.312500 1.000000
vt 0.312500 0.500000
vt 0.281250 1.000000
vt 0.281250 0.500000
vt 0.250000 1.000000
vt 0.250000 0.500000
vt 0.218750 1.000000
vt 0.218750 0.500000
vt 0.187500 1.000000
vt 0.187500 0.500000
vt 0.156250 1.000000
vt 0.156250 0.500000
vt 0.125000 1.000000
vt 0.125000 0.500000
vt 0.093750 1.000000
vt 0.093750 0.500000
vt 0.062500 1.000000
vt 0.062500 0.500000
vt 0.031250 1.000000
vt 0.031250 0.500000
vt 0.000000 1.000000
vt 0.000000 0.500000
vt 0.792329 0.462800
vt 0.750000 0.466969
vt 0.750000 0.490000
vt 0.796822 0.485388
vt 0.250000 0.466969
vt 0.292329 0.462800
vt 0.296822 0.485388
vt 0.250000 0.490000
vt 0.833030 0.450453
vt 0.841844 0.471731
vt 0.333030 0.450453
vt 0.341844 0.471731
vt 0.870541 0.430403
vt 0.883337 0.449553
vt 0.370541 0.430403
vt 0.383337 0.449553
vt 0.903420 0.403420
vt 0.919706 0.419706
vt 0.403420 0.403420
vt 0.419706 0.419706
vt 0.930403 0.370541
vt 0.949553 0.383337
vt 0.430403 0.370541
vt 0.449553 0.383337
vt 0.950453 0.333030
vt 0.971731 0.341844
vt 0.450453 0.333030
vt 0.471731 0.341844
vt 0.962800 0.292328
vt 0.985388 0.296822
vt 0.462799 0.292328
vt 0.485388 0.296822
vt 0.966969 0.250000
vt 0.990000 0.250000
vt 0.466969 0.250000
vt 0.490000 0.250000
vt 0.962800 0.207672
vt 0.985388 0.203178
vt 0.462799 0.207672
vt 0.485388 0.203178
vt 0.950453 0.166970
vt 0.971731 0.158156
vt 0.450453 0.166970
vt 0.471731 0.158156
vt 0.930403 0.129459
vt 0.949553 0.116663
vt 0.430403 0.129459
vt 0.449553 0.116663
vt 0.903420 0.096580
vt 0.919706 0.080294
vt 0.403420 0.096580
vt 0.419706 0.080294
vt 0.870541 0.069597
vt 0.883337 0.050447
vt 0.370541 0.069597
vt 0.383337 0.050447
vt 0.833030 0.049547
vt 0.841844 0.028269
vt 0.333030 0.049547
vt 0.341844 0.028269
vt 0.792329 0.037200
vt 0.796822 0.014612
vt 0.292328 0.037200
vt 0.296822 0.014612
vt 0.750000 0.033031
vt 0.750000 0.010000
vt 0.250000 0.033031
vt 0.250000 0.010000
vt 0.707672 0.037200
vt 0.703178 0.014612
vt 0.207672 0.037200
vt 0.203178 0.014612
vt 0.666970 0.049547
vt 0.658156 0.028269
vt 0.166970 0.049547
vt 0.158156 0.028269
vt 0.629459 0.069597
vt 0.616663 0.050447
vt 0.129459 0.069597
vt 0.116663 0.050447
vt 0.596580 0.096580
vt 0.580294 0.080294
vt 0.096580 0.096580
vt 0.080294 0.080294
vt 0.569597 0.129459
vt 0.550447 0.116663
vt 0.069597 0.129459
vt 0.050447 0.116663
vt 0.549547 0.166970
vt 0.528269 0.158156
vt 0.049547 0.166970
vt 0.028269 0.158156
vt 0.537201 0.207672
vt 0.514612 0.203178
vt 0.037200 0.207672
vt 0.014612 0.203178
vt 0.533031 0.250000
vt 0.510000 0.250000
vt 0.033031 0.250000
vt 0.010000 0.250000
vt 0.537200 0.292328
vt 0.514612 0.296822
vt 0.037200 0.292328
vt 0.014612 0.296822
vt 0.549547 0.333030
vt 0.528269 0.341844
vt 0.049547 0.333030
vt 0.028269 0.341844
vt 0.569597 0.370541
vt 0.550447 0.383337
vt 0.069597 0.370541
vt 0.050447 0.383337
vt 0.596580 0.403420
vt 0.580294 0.419706
vt 0.096580 0.403420
vt 0.080294 0.419706
vt 0.629459 0.430403
vt 0.616663 0.449553
vt 0.129459 0.430403
vt 0.116663 0.449553
vt 0.666970 0.450453
vt 0.658156 0.471731
vt 0.166970 0.450453
vt 0.158156 0.471731
vt 0.707672 0.462800
vt 0.703178 0.485388
vt 0.207672 0.462800
vt 0.203178 0.485388
s 0
f 65/1/1 68/2/1 67/3/1 66/4/1
f 66/4/2 67/3/2 70/5/2 69/6/2
f 69/6/3 70/5/3 72/7/3 71/8/3
f 71/8/4 72/7/4 74/9/4 73/10/4
f 73/10/5 74/9/5 76/11/5 75/12/5
f 75/12/6 76/11/6 78/13/6 77/14/6
f 77/14/7 78/13/7 80/15/7 79/16/7
f 79/16/8 80/15/8 82/17/8 81/18/8
f 81/18/9 82/17/9 84/19/9 83/20/9
f 83/20/10 84/19/10 86/21/10 85/22/10
f 85/22/11 86/21/11 88/23/11 87/24/11
f 87/24/12 88/23/12 90/25/12 89/26/12
f 89/26/13 90/25/13 92/27/13 91/28/13
f 91/28/14 92/27/14 94/29/14 93/30/14
f 93/30/15 94/29/15 96/31/15 95/32/15
f 95/32/16 96/31/16 98/33/16 97/34/16
f 97/34/17 98/33/17 100/35/17 99/36/17
f 99/36/18 100/35/18 102/37/18 101/38/18
f 101/38/19 102/37/19 104/39/19 103/40/19
f 103/40/20 104/39/20 106/41/20 105/42/20
f 105/42/21 106/41/21 108/43/21 107/44/21
f 107/44/22 108/43/22 110/45/22 109/46/22
f 109/46/23 110/45/23 112/47/23 111/48/23
f 111/48/24 112/47/24 114/49/24 113/50/24
f 113/50/25 114/49/25 116/51/25 115/52/25
f 115/52/26 116/51/26 118/53/26 117/54/26
f 117/54/27 118/53/27 120/55/27 119/56/27
f 119/56/28 120/55/28 122/57/28 121/58/28
f 121/58/29 122/57/29 124/59/29 123/60/29
f 123/60/30 124/59/30 126/61/30 125/62/30
f 125/62/31 126/61/31 128/63/31 127/64/31
f 127/64/32 128/63/32 68/65/32 65/66/32
f 3/67/33 1/68/33 65/69/33 66/70/33
f 2/71/34 4/72/34 67/73/34 68/74/34
f 5/75/33 3/67/33 66/70/33 69/76/33
f 4/72/34 6/77/34 70/78/34 67/73/34
f 7/79/33 5/75/33 69/76/33 71/80/33
f 6/77/34 8/81/34 72/82/34 70/78/34
f 9/83/33 7/79/33 71/80/33 73/84/33
f 8/81/34 10/85/34 74/86/34 72/82/34
f 11/87/33 9/83/33 73/84/33 75/88/33
f 10/85/34 12/89/34 76/90/34 74/86/34
f 13/91/33 11/87/33 75/88/33 77/92/33
f 12/89/34 14/93/34 78/94/34 76/90/34
f 15/95/33 13/91/33 77/92/33 79/96/33
f 14/93/34 16/97/34 80/98/34 78/94/34
f 17/99/33 15/95/33 79/96/33 81/100/33
f 16/97/34 18/101/34 82/102/34 80/98/34
f 19/103/33 17/99/33 81/100/33 83/104/33
f 18/101/34 20/105/34 84/106/34 82/102/34
f 21/107/33 19/103/33 83/104/33 85/108/33
f 20/105/34 22/109/34 86/110/34 84/106/34
f 23/111/33 21/107/33 85/108/33 87/112/33
f 22/109/34 24/113/34 88/114/34 86/110/34
f 25/115/33 23/111/33 87/112/33 89/116/33
f 24/113/34 26/117/34 90/118/34 88/114/34
f 27/119/33 25/115/33 89/116/33 91/120/33
f 26/117/34 28/121/34 92/122/34 90/118/34
f 29/123/33 27/119/33 91/120/33 93/124/33
f 28/121/34 30/125/34 94/126/34 92/122/34
f 31/127/33 29/123/33 93/124/33 95/128/33
f 30/125/34 32/129/34 96/130/34 94/126/34
f 33/131/33 31/127/33 95/128/33 97/132/33
f 32/129/34 34/133/34 98/134/34 96/130/34
f 35/135/33 33/131/33 97/132/33 99/136/33
f 34/133/34 36/137/34 100/138/34 98/134/34
f 37/139/33 35/135/33 99/136/33 101/140/33
f 36/137/34 38/141/34 102/142/34 100/138/34
f 39/143/33 37/139/33 101/140/33 103/144/33
f 38/141/34 40/145/34 104/146/34 102/142/34
f 41/147/33 39/143/33 103/144/33 105/148/33
f 40/145/34 42/149/34 106/150/34 104/146/34
f 43/151/33 41/147/33 105/148/33 107/152/33
f 42/149/34 44/153/34 108/154/34 106/150/34
f 45/155/33 43/151/33 107/152/33 109/156/33
f 44/153/34 46/157/34 110/158/34 108/154/34
f 47/159/33 45/155/33 109/156/33 111/160/33
f 46/157/34 48/161/34 112/162/34 110/158/34
f 49/163/33 47/159/33 111/160/33 113/164/33
f 48/161/34 50/165/34 114/166/34 112/162/34
f 51/167/33 49/163/33 113/164/33 115/168/33
f 50/165/34 52/169/34 116/170/34 114/166/34
f 53/171/33 51/167/33 115/168/33 117/172/33
f 52/169/34 54/173/34 118/174/34 116/170/34
f 55/175/33 53/171/33 117/172/33 119/176/33
f 54/173/34 56/177/34 120/178/34 118/174/34
f 57/179/33 55/175/33 119/176/33 121/180/33
f 56/177/34 58/181/34 122/182/34 120/178/34
f 59/183/33 57/179/33 121/180/33 123/184/33
f 58/181/34 60/185/34 124/186/34 122/182/34
f 61/187/33 59/183/33 123/184/33 125/188/33
f 60/185/34 62/189/34 126/190/34 124/186/34
f 63/191/33 61/187/33 125/188/33 127/192/33
f 62/189/34 64/193/34 128/194/34 126/190/34
f 1/68/33 63/191/33 127/192/33 65/69/33
f 64/193/34 2/71/34 68/74/34 128/194/34
f 5/75/19 7/79/19 8/81/19 6/77/19
f 7/79/20 9/83/20 10/85/20 8/81/20
f 9/83/21 11/87/21 12/89/21 10/85/21
f 11/87/22 13/91/22 14/93/22 12/89/22
f 13/91/23 15/95/23 16/97/23 14/93/23
f 15/95/24 17/99/24 18/101/24 16/97/24
f 17/99/25 19/103/25 20/105/25 18/101/25
f 19/103/26 21/107/26 22/109/26 20/105/26
f 21/107/27 23/111/27 24/113/27 22/109/27
f 23/111/28 25/115/28 26/117/28 24/113/28
f 25/115/29 27/119/29 28/121/29 26/117/29
f 27/119/30 29/123/30 30/125/30 28/121/30
f 29/123/31 31/127/31 32/129/31 30/125/31
f 31/127/32 33/131/32 34/133/32 32/129/32
f 33/131/1 35/135/1 36/137/1 34/133/1
f 35/135/2 37/139/2 38/141/2 36/137/2
f 37/139/3 39/143/3 40/145/3 38/141/3
f 39/143/4 41/147/4 42/149/4 40/145/4
f 41/147/5 43/151/5 44/153/5 42/149/5
f 43/151/6 45/155/6 46/157/6 44/153/6
f 45/155/7 47/159/7 48/161/7 46/157/7
f 47/159/8 49/163/8 50/165/8 48/161/8
f 49/163/9 51/167/9 52/169/9 50/165/9
f 51/167/10 53/171/10 54/173/10 52/169/10
f 53/171/11 55/175/11 56/177/11 54/173/11
f 55/175/12 57/179/12 58/181/12 56/177/12
f 57/179/13 59/183/13 60/185/13 58/181/13
f 59/183/14 61/187/14 62/189/14 60/185/14
f 61/187/15 63/191/15 64/193/15 62/189/15
f 63/191/16 1/68/16 2/71/16 64/193/16
f 1/68/17 3/67/17 4/72/17 2/71/17
f 3/67/18 5/75/18 6/77/18 4/72/18
